<mxfile host="app.diagrams.net" modified="2024-03-03T15:31:31.427Z" agent="Mozilla/5.0 (Windows NT 10.0; Win64; x64) AppleWebKit/537.36 (KHTML, like Gecko) Chrome/122.0.0.0 Safari/537.36" etag="0UPwKxAUQhCK9pDG6BOu" version="24.0.1" type="github">
  <diagram name="第 1 页" id="LxGPIQb9DdedhK4v_Cno">
    <mxGraphModel dx="1434" dy="749" grid="1" gridSize="10" guides="1" tooltips="1" connect="1" arrows="1" fold="1" page="1" pageScale="1" pageWidth="827" pageHeight="1169" math="0" shadow="0">
      <root>
        <mxCell id="0" />
        <mxCell id="1" parent="0" />
        <mxCell id="gBiFxoKiDaGqHf5anBV5-3" value="" style="edgeStyle=orthogonalEdgeStyle;rounded=0;orthogonalLoop=1;jettySize=auto;html=1;" edge="1" parent="1" source="gBiFxoKiDaGqHf5anBV5-1" target="gBiFxoKiDaGqHf5anBV5-2">
          <mxGeometry relative="1" as="geometry" />
        </mxCell>
        <mxCell id="gBiFxoKiDaGqHf5anBV5-1" value="&lt;font style=&quot;font-size: 17px;&quot;&gt;&lt;b&gt;项目开始&lt;/b&gt;&lt;/font&gt;" style="rounded=0;whiteSpace=wrap;html=1;" vertex="1" parent="1">
          <mxGeometry x="206.25" y="120" width="195" height="80" as="geometry" />
        </mxCell>
        <mxCell id="gBiFxoKiDaGqHf5anBV5-5" value="" style="edgeStyle=orthogonalEdgeStyle;rounded=0;orthogonalLoop=1;jettySize=auto;html=1;" edge="1" parent="1" source="gBiFxoKiDaGqHf5anBV5-2" target="gBiFxoKiDaGqHf5anBV5-4">
          <mxGeometry relative="1" as="geometry" />
        </mxCell>
        <mxCell id="gBiFxoKiDaGqHf5anBV5-2" value="&lt;span style=&quot;font-size: 17px;&quot;&gt;&lt;b&gt;了解项目需求，背景，细节&lt;/b&gt;&lt;/span&gt;&lt;div&gt;&lt;span style=&quot;font-size: 17px;&quot;&gt;（施振华&lt;/span&gt;&lt;span style=&quot;font-size: 17px; background-color: initial;&quot;&gt;，&lt;/span&gt;&lt;span style=&quot;background-color: initial; font-size: 17px;&quot;&gt;梁子祥&lt;/span&gt;&lt;span style=&quot;background-color: initial; font-size: 17px;&quot;&gt;，黄子文）&lt;/span&gt;&lt;/div&gt;" style="rounded=1;whiteSpace=wrap;html=1;" vertex="1" parent="1">
          <mxGeometry x="197.5" y="248" width="212.5" height="100" as="geometry" />
        </mxCell>
        <mxCell id="gBiFxoKiDaGqHf5anBV5-9" value="" style="edgeStyle=orthogonalEdgeStyle;rounded=0;orthogonalLoop=1;jettySize=auto;html=1;" edge="1" parent="1" source="gBiFxoKiDaGqHf5anBV5-4" target="gBiFxoKiDaGqHf5anBV5-8">
          <mxGeometry relative="1" as="geometry" />
        </mxCell>
        <mxCell id="gBiFxoKiDaGqHf5anBV5-4" value="&lt;span style=&quot;font-size: 17px;&quot;&gt;&lt;b&gt;商讨初步方案，撰写初步方案书&lt;/b&gt;&lt;/span&gt;&lt;div&gt;&lt;span style=&quot;font-size: 17px;&quot;&gt;（&lt;/span&gt;&lt;span style=&quot;font-size: 17px; background-color: initial;&quot;&gt;施振华，&lt;/span&gt;&lt;span style=&quot;font-size: 17px; background-color: initial;&quot;&gt;梁子祥&lt;/span&gt;&lt;span style=&quot;background-color: initial; font-size: 17px;&quot;&gt;）&lt;/span&gt;&lt;/div&gt;" style="rounded=1;whiteSpace=wrap;html=1;" vertex="1" parent="1">
          <mxGeometry x="196.25" y="390" width="215" height="90" as="geometry" />
        </mxCell>
        <mxCell id="gBiFxoKiDaGqHf5anBV5-11" value="" style="edgeStyle=orthogonalEdgeStyle;rounded=0;orthogonalLoop=1;jettySize=auto;html=1;" edge="1" parent="1" source="gBiFxoKiDaGqHf5anBV5-8" target="gBiFxoKiDaGqHf5anBV5-10">
          <mxGeometry relative="1" as="geometry" />
        </mxCell>
        <mxCell id="gBiFxoKiDaGqHf5anBV5-12" value="&lt;font style=&quot;font-size: 18px;&quot;&gt;评审通过&lt;/font&gt;" style="edgeLabel;html=1;align=center;verticalAlign=middle;resizable=0;points=[];" vertex="1" connectable="0" parent="gBiFxoKiDaGqHf5anBV5-11">
          <mxGeometry x="-0.2195" y="1" relative="1" as="geometry">
            <mxPoint as="offset" />
          </mxGeometry>
        </mxCell>
        <mxCell id="gBiFxoKiDaGqHf5anBV5-21" value="" style="edgeStyle=orthogonalEdgeStyle;rounded=0;orthogonalLoop=1;jettySize=auto;html=1;" edge="1" parent="1" source="gBiFxoKiDaGqHf5anBV5-8" target="gBiFxoKiDaGqHf5anBV5-20">
          <mxGeometry relative="1" as="geometry" />
        </mxCell>
        <mxCell id="gBiFxoKiDaGqHf5anBV5-22" value="&lt;font style=&quot;font-size: 15px;&quot;&gt;提出存在问题&lt;/font&gt;&lt;div style=&quot;font-size: 15px;&quot;&gt;&lt;font style=&quot;font-size: 15px;&quot;&gt;，改进之处&lt;/font&gt;&lt;/div&gt;" style="edgeLabel;html=1;align=center;verticalAlign=middle;resizable=0;points=[];" vertex="1" connectable="0" parent="gBiFxoKiDaGqHf5anBV5-21">
          <mxGeometry x="-0.2429" y="5" relative="1" as="geometry">
            <mxPoint x="17" y="5" as="offset" />
          </mxGeometry>
        </mxCell>
        <mxCell id="gBiFxoKiDaGqHf5anBV5-8" value="&lt;font style=&quot;font-size: 20px;&quot;&gt;&lt;b&gt;方案评审&lt;/b&gt;&lt;/font&gt;&lt;div&gt;&lt;font style=&quot;font-size: 20px;&quot;&gt;（&lt;/font&gt;&lt;span style=&quot;font-size: 17px; background-color: initial;&quot;&gt;施振华&lt;/span&gt;&lt;span style=&quot;font-size: 17px; background-color: initial;&quot;&gt;，&lt;/span&gt;&lt;span style=&quot;background-color: initial; font-size: 17px;&quot;&gt;梁子祥&lt;/span&gt;&lt;span style=&quot;background-color: initial; font-size: 17px;&quot;&gt;，&lt;/span&gt;&lt;/div&gt;&lt;div&gt;&lt;span style=&quot;font-size: 17px; background-color: initial;&quot;&gt;&amp;nbsp; &amp;nbsp; 杨乔&lt;/span&gt;&lt;span style=&quot;font-size: 17px; background-color: initial;&quot;&gt;，&lt;/span&gt;&lt;span style=&quot;background-color: initial; font-size: 17px;&quot;&gt;黄子文&lt;/span&gt;&lt;span style=&quot;background-color: initial; font-size: 20px;&quot;&gt;）&lt;/span&gt;&lt;/div&gt;" style="rhombus;whiteSpace=wrap;html=1;rounded=1;" vertex="1" parent="1">
          <mxGeometry x="181.41" y="560.94" width="244.69" height="130" as="geometry" />
        </mxCell>
        <mxCell id="gBiFxoKiDaGqHf5anBV5-16" value="" style="edgeStyle=orthogonalEdgeStyle;rounded=0;orthogonalLoop=1;jettySize=auto;html=1;" edge="1" parent="1" source="gBiFxoKiDaGqHf5anBV5-10" target="gBiFxoKiDaGqHf5anBV5-15">
          <mxGeometry relative="1" as="geometry" />
        </mxCell>
        <mxCell id="gBiFxoKiDaGqHf5anBV5-10" value="&lt;font style=&quot;font-size: 17px;&quot;&gt;&lt;b&gt;撰写最终版方案书&lt;/b&gt;&lt;/font&gt;&lt;div&gt;&lt;font style=&quot;font-size: 17px;&quot;&gt;(施振华&lt;/font&gt;&lt;span style=&quot;font-size: 17px; background-color: initial;&quot;&gt;，&lt;/span&gt;&lt;span style=&quot;font-size: 17px; background-color: initial;&quot;&gt;梁子祥&lt;/span&gt;&lt;span style=&quot;background-color: initial; font-size: 17px;&quot;&gt;)&lt;/span&gt;&lt;/div&gt;" style="whiteSpace=wrap;html=1;rounded=1;" vertex="1" parent="1">
          <mxGeometry x="206.26" y="748" width="195" height="82" as="geometry" />
        </mxCell>
        <mxCell id="gBiFxoKiDaGqHf5anBV5-18" value="" style="edgeStyle=orthogonalEdgeStyle;rounded=0;orthogonalLoop=1;jettySize=auto;html=1;entryX=0.5;entryY=0;entryDx=0;entryDy=0;" edge="1" parent="1" source="gBiFxoKiDaGqHf5anBV5-15" target="gBiFxoKiDaGqHf5anBV5-24">
          <mxGeometry relative="1" as="geometry">
            <mxPoint x="285" y="988" as="targetPoint" />
          </mxGeometry>
        </mxCell>
        <mxCell id="gBiFxoKiDaGqHf5anBV5-15" value="&lt;font style=&quot;font-size: 18px;&quot;&gt;&lt;b&gt;编码&lt;/b&gt;&lt;/font&gt;&lt;div&gt;&lt;font style=&quot;font-size: 17px;&quot;&gt;(施振华&lt;/font&gt;&lt;span style=&quot;background-color: initial; font-size: 17px;&quot;&gt;，&lt;/span&gt;&lt;span style=&quot;background-color: initial; font-size: 17px;&quot;&gt;梁子祥&lt;/span&gt;&lt;span style=&quot;background-color: initial; font-size: 17px;&quot;&gt;)&lt;/span&gt;&lt;br&gt;&lt;/div&gt;" style="whiteSpace=wrap;html=1;rounded=1;" vertex="1" parent="1">
          <mxGeometry x="207.25" y="878" width="192.5" height="72" as="geometry" />
        </mxCell>
        <mxCell id="gBiFxoKiDaGqHf5anBV5-17" value="&lt;font style=&quot;font-size: 19px;&quot;&gt;&lt;b&gt;项目结题&lt;/b&gt;&lt;/font&gt;" style="whiteSpace=wrap;html=1;rounded=0;" vertex="1" parent="1">
          <mxGeometry x="209.13" y="1118" width="189.75" height="80" as="geometry" />
        </mxCell>
        <mxCell id="gBiFxoKiDaGqHf5anBV5-23" style="edgeStyle=orthogonalEdgeStyle;rounded=0;orthogonalLoop=1;jettySize=auto;html=1;entryX=0.5;entryY=0;entryDx=0;entryDy=0;exitX=1;exitY=0.5;exitDx=0;exitDy=0;" edge="1" parent="1">
          <mxGeometry relative="1" as="geometry">
            <mxPoint x="303.7549999999999" y="561.9399999999999" as="targetPoint" />
            <mxPoint x="740" y="627.56" as="sourcePoint" />
            <Array as="points">
              <mxPoint x="780" y="628" />
              <mxPoint x="780" y="520" />
              <mxPoint x="304" y="520" />
            </Array>
          </mxGeometry>
        </mxCell>
        <mxCell id="gBiFxoKiDaGqHf5anBV5-20" value="&lt;font style=&quot;font-size: 17px;&quot;&gt;&lt;b&gt;根据意见修改方案&lt;/b&gt;&lt;/font&gt;&lt;div&gt;&lt;font style=&quot;font-size: 17px;&quot;&gt;(施振华&lt;span style=&quot;background-color: initial;&quot;&gt;，&lt;/span&gt;&lt;span style=&quot;background-color: initial;&quot;&gt;梁子祥&lt;/span&gt;&lt;span style=&quot;background-color: initial;&quot;&gt;)&lt;/span&gt;&lt;br&gt;&lt;/font&gt;&lt;/div&gt;" style="whiteSpace=wrap;html=1;rounded=1;" vertex="1" parent="1">
          <mxGeometry x="570" y="584.9999999999999" width="170" height="83.12" as="geometry" />
        </mxCell>
        <mxCell id="gBiFxoKiDaGqHf5anBV5-26" value="" style="edgeStyle=orthogonalEdgeStyle;rounded=0;orthogonalLoop=1;jettySize=auto;html=1;" edge="1" parent="1" source="gBiFxoKiDaGqHf5anBV5-24" target="gBiFxoKiDaGqHf5anBV5-17">
          <mxGeometry relative="1" as="geometry" />
        </mxCell>
        <mxCell id="gBiFxoKiDaGqHf5anBV5-24" value="&lt;font style=&quot;font-size: 19px;&quot;&gt;&lt;b&gt;项目审核&lt;/b&gt;&lt;/font&gt;&lt;div&gt;&lt;font style=&quot;font-size: 19px;&quot;&gt;（杨乔，黄子文）&lt;/font&gt;&lt;/div&gt;" style="rounded=1;whiteSpace=wrap;html=1;" vertex="1" parent="1">
          <mxGeometry x="209.13" y="998" width="189.87" height="82" as="geometry" />
        </mxCell>
      </root>
    </mxGraphModel>
  </diagram>
</mxfile>
